<svg width="277" height="81" viewBox="0 0 277 81" fill="none" xmlns="http://www.w3.org/2000/svg">
<path d="M58.7295 51.192C55.8708 51.192 53.6202 50.3707 51.9775 48.728C50.3348 47.0853 49.5135 44.6533 49.5135 41.432V28.6H51.8815V41.336C51.8815 43.9813 52.4788 45.9333 53.6735 47.192C54.8682 48.4507 56.5535 49.08 58.7295 49.08C60.9268 49.08 62.6228 48.4507 63.8175 47.192C65.0122 45.9333 65.6095 43.9813 65.6095 41.336V28.6H67.9135V41.432C67.9135 44.6533 67.0922 47.0853 65.4495 48.728C63.8282 50.3707 61.5882 51.192 58.7295 51.192ZM75.152 51.16C74.6827 51.16 74.2773 50.9893 73.936 50.648C73.616 50.3067 73.456 49.8907 73.456 49.4C73.456 48.888 73.616 48.472 73.936 48.152C74.2773 47.832 74.6827 47.672 75.152 47.672C75.6213 47.672 76.016 47.832 76.336 48.152C76.6773 48.472 76.848 48.888 76.848 49.4C76.848 49.8907 76.6773 50.3067 76.336 50.648C76.016 50.9893 75.6213 51.16 75.152 51.16ZM91.9323 51.192C90.2469 51.192 88.6896 50.9147 87.2603 50.36C85.8309 49.784 84.5936 48.984 83.5483 47.96C82.5029 46.936 81.6816 45.7307 81.0843 44.344C80.5083 42.9573 80.2203 41.4427 80.2203 39.8C80.2203 38.1573 80.5083 36.6427 81.0843 35.256C81.6816 33.8693 82.5029 32.664 83.5483 31.64C84.6149 30.616 85.8629 29.8267 87.2923 29.272C88.7216 28.696 90.2789 28.408 91.9643 28.408C93.5856 28.408 95.1109 28.6853 96.5403 29.24C97.9696 29.7733 99.1749 30.584 100.156 31.672L98.6523 33.176C97.7349 32.2373 96.7216 31.5653 95.6123 31.16C94.5029 30.7333 93.3083 30.52 92.0283 30.52C90.6843 30.52 89.4363 30.7547 88.2843 31.224C87.1323 31.672 86.1296 32.3227 85.2763 33.176C84.4229 34.008 83.7509 34.9893 83.2603 36.12C82.7909 37.2293 82.5563 38.456 82.5563 39.8C82.5563 41.144 82.7909 42.3813 83.2603 43.512C83.7509 44.6213 84.4229 45.6027 85.2763 46.456C86.1296 47.288 87.1323 47.9387 88.2843 48.408C89.4363 48.856 90.6843 49.08 92.0283 49.08C93.3083 49.08 94.5029 48.8667 95.6123 48.44C96.7216 48.0133 97.7349 47.3307 98.6523 46.392L100.156 47.896C99.1749 48.984 97.9696 49.8053 96.5403 50.36C95.1109 50.9147 93.5749 51.192 91.9323 51.192ZM106.026 51.16C105.556 51.16 105.151 50.9893 104.81 50.648C104.49 50.3067 104.33 49.8907 104.33 49.4C104.33 48.888 104.49 48.472 104.81 48.152C105.151 47.832 105.556 47.672 106.026 47.672C106.495 47.672 106.89 47.832 107.21 48.152C107.551 48.472 107.722 48.888 107.722 49.4C107.722 49.8907 107.551 50.3067 107.21 50.648C106.89 50.9893 106.495 51.16 106.026 51.16ZM132.446 51.192C130.761 51.192 129.203 50.9147 127.774 50.36C126.345 49.784 125.107 48.984 124.062 47.96C123.017 46.936 122.195 45.7307 121.598 44.344C121.022 42.9573 120.734 41.4427 120.734 39.8C120.734 38.1573 121.022 36.6427 121.598 35.256C122.195 33.8693 123.017 32.664 124.062 31.64C125.129 30.616 126.377 29.8267 127.806 29.272C129.235 28.696 130.793 28.408 132.478 28.408C134.099 28.408 135.625 28.6853 137.054 29.24C138.483 29.7733 139.689 30.584 140.67 31.672L139.166 33.176C138.249 32.2373 137.235 31.5653 136.126 31.16C135.017 30.7333 133.822 30.52 132.542 30.52C131.198 30.52 129.95 30.7547 128.798 31.224C127.646 31.672 126.643 32.3227 125.79 33.176C124.937 34.008 124.265 34.9893 123.774 36.12C123.305 37.2293 123.07 38.456 123.07 39.8C123.07 41.144 123.305 42.3813 123.774 43.512C124.265 44.6213 124.937 45.6027 125.79 46.456C126.643 47.288 127.646 47.9387 128.798 48.408C129.95 48.856 131.198 49.08 132.542 49.08C133.822 49.08 135.017 48.8667 136.126 48.44C137.235 48.0133 138.249 47.3307 139.166 46.392L140.67 47.896C139.689 48.984 138.483 49.8053 137.054 50.36C135.625 50.9147 134.089 51.192 132.446 51.192ZM146.358 51V28.6H148.726V48.952H161.27V51H146.358ZM167.954 38.616H179.794V40.632H167.954V38.616ZM168.21 48.952H181.682V51H165.842V28.6H181.202V30.648H168.21V48.952ZM184.304 51L194.544 28.6H196.88L207.12 51H204.624L195.216 29.976H196.176L186.768 51H184.304ZM188.336 45.016L189.04 43.096H202.064L202.768 45.016H188.336ZM211.466 51V28.6H219.85C221.748 28.6 223.38 28.9093 224.746 29.528C226.111 30.1253 227.156 31 227.882 32.152C228.628 33.2827 229.002 34.6587 229.002 36.28C229.002 37.8587 228.628 39.224 227.882 40.376C227.156 41.5067 226.111 42.3813 224.746 43C223.38 43.5973 221.748 43.896 219.85 43.896H212.778L213.834 42.808V51H211.466ZM226.762 51L221.002 42.872H223.562L229.354 51H226.762ZM213.834 43L212.778 41.88H219.786C222.026 41.88 223.722 41.3893 224.874 40.408C226.047 39.4267 226.634 38.0507 226.634 36.28C226.634 34.488 226.047 33.1013 224.874 32.12C223.722 31.1387 222.026 30.648 219.786 30.648H212.778L213.834 29.528V43Z" fill="#5A5A5A"/>
<mask id="path-2-inside-1_4_65" fill="white">
<path d="M123 25C123 15.625 110.688 3.57143 95.5 3.57143C80.3122 3.57143 68 14.7321 68 25C68 11.9325 80.3122 0 95.5 0C110.688 0 123 11.9325 123 25Z"/>
</mask>
<path d="M123 25H129C129 17.889 124.545 11.0035 118.807 6.17813C112.887 1.19887 104.676 -2.42857 95.5 -2.42857V3.57143V9.57143C101.511 9.57143 107.051 11.9708 111.084 15.3621C115.299 18.9073 117 22.736 117 25H123ZM95.5 3.57143V-2.42857C86.4486 -2.42857 78.2457 0.88779 72.254 5.79242C66.3777 10.6026 62 17.515 62 25H68H74C74 22.2172 75.7784 18.4152 79.8551 15.0781C83.8165 11.8354 89.3635 9.57143 95.5 9.57143V3.57143ZM68 25H74C74 15.6625 83.1937 6 95.5 6V0V-6C77.4306 -6 62 8.20258 62 25H68ZM95.5 0V6C107.806 6 117 15.6625 117 25H123H129C129 8.20258 113.569 -6 95.5 -6V0Z" fill="#5A5A5A" mask="url(#path-2-inside-1_4_65)"/>
<mask id="path-4-inside-2_4_65" fill="white">
<path d="M123 56C123 65.375 110.688 77.4286 95.5 77.4286C80.3122 77.4286 68 66.2679 68 56C68 69.0675 80.3122 81 95.5 81C110.688 81 123 69.0675 123 56Z"/>
</mask>
<path d="M123 56H129C129 63.111 124.545 69.9965 118.807 74.8219C112.887 79.8011 104.676 83.4286 95.5 83.4286V77.4286V71.4286C101.511 71.4286 107.051 69.0292 111.084 65.6379C115.299 62.0927 117 58.264 117 56H123ZM95.5 77.4286V83.4286C86.4486 83.4286 78.2457 80.1122 72.254 75.2076C66.3777 70.3974 62 63.485 62 56H68H74C74 58.7828 75.7784 62.5848 79.8551 65.9219C83.8165 69.1646 89.3635 71.4286 95.5 71.4286V77.4286ZM68 56H74C74 65.3375 83.1937 75 95.5 75V81V87C77.4306 87 62 72.7974 62 56H68ZM95.5 81V75C107.806 75 117 65.3375 117 56H123H129C129 72.7974 113.569 87 95.5 87V81Z" fill="#5A5A5A" mask="url(#path-4-inside-2_4_65)"/>
</svg>
